<?xml version="1.0" encoding="utf-8"?>
<!-- Generator: Adobe Illustrator 23.0.4, SVG Export Plug-In . SVG Version: 6.00 Build 0)  -->
<svg version="1.1" id="Layer_1" xmlns="http://www.w3.org/2000/svg" xmlns:xlink="http://www.w3.org/1999/xlink" x="0px" y="0px"
	 viewBox="0 0 197.9 36" style="enable-background:new 0 0 197.9 36;" xml:space="preserve">
<g>
	<path d="M18.2,0C8.15,0,0,8.06,0,18c0,9.94,8.15,18,18.2,18c10.05,0,18.2-8.05,18.2-18C36.41,8.06,28.25,0,18.2,0z M16.12,31.56
		c0.31,0.15,0.62,0.28,0.93,0.4c-3.61-2.33-4.04-8.13-1.08-13.82c3.1-5.97,8.93-9.1,13.03-7.01c1.19,0.61,2.02,1.55,2.53,2.75
		c-2.9-0.47-6.27,1.5-8.08,4.98c-2.13,4.09-1.3,8.73,1.86,10.33c1.01,0.52,2.14,0.66,3.28,0.48c-0.06,0.06-0.13,0.11-0.2,0.16
		c0.09-0.02,0.18-0.03,0.27-0.05c-2.72,2.32-6.26,3.72-10.13,3.72c-8.57,0-15.53-6.89-15.53-15.4c0-8.5,6.96-15.38,15.53-15.38
		c7.59,0,13.89,5.37,15.26,12.48c-0.23-0.2-0.48-0.38-0.75-0.53c-0.66-2.83-2.3-5.18-4.8-6.45c-5.19-2.65-12.12,0.43-15.47,6.87
		C9.43,21.54,10.92,28.9,16.12,31.56z"/>
	<path d="M47.37,13.19h3.24l-0.29,2.13h0.06c0.77-1.28,2.25-2.47,4.52-2.47c2.1,0,3.44,0.83,3.92,2.53
		c1.22-1.74,2.79-2.53,4.83-2.53c3.64,0,4.54,2.58,4.09,5.86l-1.14,8.12h-3.41l1.08-7.73c0.26-1.7-0.05-3.18-2.07-3.18
		c-2.13,0-3.18,1.77-3.41,3.52l-1.05,7.39h-3.41l1.13-8.12c0.23-1.68-0.28-2.79-1.93-2.79c-2.24,0-3.35,1.65-3.61,3.47l-1.05,7.45
		h-3.41L47.37,13.19z"/>
	<path d="M87.67,13.19h3.41l-0.29,2.15h0.06c0.97-1.56,2.59-2.5,4.38-2.5c0.43,0,0.82,0.08,1.19,0.2l-0.46,3.3
		c-0.54-0.14-1.08-0.25-1.62-0.25c-3.21,0-4.03,2.7-4.15,3.44l-1.02,7.3h-3.41L87.67,13.19z"/>
	<path d="M99.26,5.34h3.41l-1.9,13.5l6.05-5.65h4.38l-6.7,6.19l5.17,7.45h-4.51l-4.47-6.96h-0.05l-0.97,6.96h-3.41L99.26,5.34z"/>
	<path d="M113.32,21.2c-0.06,2.01,1.31,3.24,3.21,3.24c1.71,0,2.93-0.79,3.92-1.85l2.19,1.85c-1.88,1.96-4.01,2.73-6.17,2.73
		c-4.12,0-6.99-2.87-6.39-7.16c0.6-4.29,4.29-7.16,8.41-7.16c3.81,0,6.03,2.67,5.34,7.42l-0.12,0.94H113.32z M120.65,18.64
		c0.26-1.99-0.85-3.24-2.98-3.24c-2.02,0-3.47,1.27-4.01,3.24H120.65z"/>
	<path d="M124.88,16.09l0.4-2.9h2.81l0.57-3.95h3.41l-0.57,3.95h3.75l-0.4,2.9h-3.75l-0.82,5.96c-0.2,1.37,0.09,2.22,1.59,2.22
		c0.6,0,1.42-0.11,1.91-0.42l-0.4,2.87c-0.77,0.34-1.99,0.46-2.78,0.46c-3.61,0-4.23-1.62-3.78-4.83l0.88-6.25H124.88z"/>
	<path d="M146.11,17.28c-0.68-0.82-1.48-1.37-2.38-1.37c-2.5,0-4.29,1.96-4.57,4.09c-0.32,2.13,0.91,4.09,3.41,4.09
		c1.05,0,2.1-0.46,2.84-1.28l1.93,2.45c-1.59,1.39-4.01,1.9-5.2,1.9c-4.12,0-6.99-2.87-6.39-7.16c0.6-4.29,4.29-7.16,8.41-7.16
		c1.73,0,3.55,0.63,4.66,2.07L146.11,17.28z"/>
	<path d="M150.54,13.19h3.41l-1.9,13.64h-3.41L150.54,13.19z M153.16,6.51c1.25,0,2.1,0.88,1.93,2.04c-0.14,1.16-1.25,2.04-2.5,2.04
		c-1.25,0-2.02-0.96-1.88-2.04C150.88,7.48,151.91,6.51,153.16,6.51z"/>
	<path d="M156.73,13.19h3.41l-0.28,2.15h0.06c0.96-1.56,2.59-2.5,4.37-2.5c0.43,0,0.83,0.08,1.19,0.2l-0.45,3.3
		c-0.54-0.14-1.08-0.25-1.62-0.25c-3.21,0-4.03,2.7-4.15,3.44l-1.02,7.3h-3.41L156.73,13.19z"/>
	<path d="M175.4,17.28c-0.68-0.82-1.47-1.37-2.38-1.37c-2.5,0-4.29,1.96-4.58,4.09c-0.31,2.13,0.91,4.09,3.41,4.09
		c1.05,0,2.1-0.46,2.84-1.28l1.93,2.45c-1.59,1.39-4.01,1.9-5.2,1.9c-4.12,0-6.99-2.87-6.39-7.16c0.6-4.29,4.29-7.16,8.41-7.16
		c1.74,0,3.56,0.63,4.66,2.07L175.4,17.28z"/>
	<path d="M180.94,5.34h3.41l-3.01,21.48h-3.41L180.94,5.34z"/>
	<path d="M187.38,21.2c-0.05,2.01,1.31,3.24,3.21,3.24c1.7,0,2.92-0.79,3.92-1.85l2.18,1.85c-1.88,1.96-4,2.73-6.16,2.73
		c-4.12,0-6.99-2.87-6.39-7.16c0.59-4.29,4.29-7.16,8.41-7.16c3.8,0,6.02,2.67,5.34,7.42l-0.11,0.94H187.38z M194.72,18.64
		c0.25-1.99-0.86-3.24-2.98-3.24c-2.02,0-3.46,1.27-4.01,3.24H194.72z"/>
	<path d="M81.73,13.19l-0.27,1.82c-0.43-1.56-2.21-2.17-3.69-2.17c-4.13,0-7.82,2.87-8.41,7.16c-0.6,4.29,2.27,7.16,6.4,7.16
		c1.48,0,3.45-0.61,4.32-2.16l-0.24,1.82h3.41l1.9-13.64H81.73z M76.18,24.27c-2.5,0-3.9-2.13-3.59-4.27
		c0.29-2.13,2.25-4.27,4.75-4.27c2.5,0,3.79,1.72,3.44,4.27C80.4,22.73,78.67,24.27,76.18,24.27z"/>
</g>
</svg>
